<svg xmlns="http://www.w3.org/2000/svg" xmlns:xlink="http://www.w3.org/1999/xlink" viewBox="0 0 450.2 124.2" enable-background="new 0 0 450.2 124.2"><defs><path id="a" d="M88.7 47.2h360v31.8h-360z"/></defs><clipPath id="b"><use xlink:href="#a" overflow="visible"/></clipPath><path clip-path="url(#b)" fill="#D2232A" d="M335.9 68.6c0 3.2-2.2 2.3-2.2 3.1 0 .2.1.3.3.3.2 0 3.2-.1 3.5-.1l4.8.1c8.6 0 12-5.3 12-13 0-6.2-5.4-10.7-10.9-10.7-2.7 0-4.7.1-6.8.1-.9 0-1.8-.1-2.8-.1-.2 0-.4.1-.4.3 0 .9 2.6-.2 2.6 3.2v16.8zm2.5-17.3c0-1.6.1-2.1 3.1-2.1 5.9 0 10.5 4.2 10.5 11.7 0 7.7-4.2 10.3-8.6 10.3-1.4 0-3.8-.4-4.8-1.5-.3-.3-.2-1.9-.2-2.4v-16z"/><path clip-path="url(#b)" stroke="#D2232A" stroke-width=".205" d="M335.9 68.6c0 3.2-2.2 2.3-2.2 3.1 0 .2.1.3.3.3.2 0 3.2-.1 3.5-.1l4.8.1c8.6 0 12-5.3 12-13 0-6.2-5.4-10.7-10.9-10.7-2.7 0-4.7.1-6.8.1-.9 0-1.8-.1-2.8-.1-.2 0-.4.1-.4.3 0 .9 2.6-.2 2.6 3.2v16.8zm2.5-17.3c0-1.6.1-2.1 3.1-2.1 5.9 0 10.5 4.2 10.5 11.7 0 7.7-4.2 10.3-8.6 10.3-1.4 0-3.8-.4-4.8-1.5-.3-.3-.2-1.9-.2-2.4v-16z" fill="none"/><path clip-path="url(#b)" fill="#D2232A" d="M373 50.5c-.8-1.4-2.3-1-2.3-1.6 0-.2.2-.5.4-.5.8 0 1.4.1 3.5.1 1 0 1.9-.1 2.2-.1.2 0 .6 0 .6.3 0 .6-1.5.6-1.5 1.6 0 .5.4 1.1.6 1.4l3.8 6.5c.2.4.4.6.6.6.2 0 .3-.2.6-.7l3.2-5.6c.2-.4.7-.9.7-1.8 0-1.6-2.3-.9-2.3-1.7 0-.4.3-.5.7-.5.7 0 1.5.1 2.3.1l2.8.1c.2 0 .3 0 .3.2 0 .4-.5.5-.7.6-.8.5-1.2 1.5-1.7 2.3l-4.4 7.3c-.5.8-.7 1-.7 1.5v8.2c0 2.9 2.6 2 2.6 3 0 .3-.3.3-.7.3-.5 0-2.3-.1-3.4-.1-1.4 0-2.5.1-2.8.1s-.5 0-.5-.4c0-.9 2.4-.1 2.4-2.4v-8.1c0-.6-.5-1.3-.7-1.7l-5.6-9z"/><path clip-path="url(#b)" stroke="#D2232A" stroke-width=".205" d="M373 50.5c-.8-1.4-2.3-1-2.3-1.6 0-.2.2-.5.4-.5.8 0 1.4.1 3.5.1 1 0 1.9-.1 2.2-.1.2 0 .6 0 .6.3 0 .6-1.5.6-1.5 1.6 0 .5.4 1.1.6 1.4l3.8 6.5c.2.4.4.6.6.6.2 0 .3-.2.6-.7l3.2-5.6c.2-.4.7-.9.7-1.8 0-1.6-2.3-.9-2.3-1.7 0-.4.3-.5.7-.5.7 0 1.5.1 2.3.1l2.8.1c.2 0 .3 0 .3.2 0 .4-.5.5-.7.6-.8.5-1.2 1.5-1.7 2.3l-4.4 7.3c-.5.8-.7 1-.7 1.5v8.2c0 2.9 2.6 2 2.6 3 0 .3-.3.3-.7.3-.5 0-2.3-.1-3.4-.1-1.4 0-2.5.1-2.8.1s-.5 0-.5-.4c0-.9 2.4-.1 2.4-2.4v-8.1c0-.6-.5-1.3-.7-1.7l-5.6-9z" fill="none"/><path clip-path="url(#b)" fill="#D2232A" d="M394.4 51.7c0-.2.1-1.5-.3-1.5h-5.1c-1.9 0-2.1.4-3.1 2.2-.2.3-.9 1-1.3 1l.6-.8.6-2.2c0-.4-.5-2 0-2h9.5c5.6 0 8.5-.1 9.1-.1.7 0 .9.2.9 1l.2 2.7c0 .3.1.7-.3.7-1.1 0 .5-2.5-2.6-2.5h-4.4c-1.4 0-1.2-.1-1.2 1.6v17c0 2.8 2.5 1.7 2.5 2.7 0 .1 0 .4-.3.4-.7 0-1.6-.1-2.5-.1-3.5 0-4.1.1-4.3.1-.3 0-.4-.1-.4-.4 0-.8 2.5-.5 2.5-2.5v-17.3z"/><path clip-path="url(#b)" stroke="#D2232A" stroke-width=".205" d="M394.4 51.7c0-.2.1-1.5-.3-1.5h-5.1c-1.9 0-2.1.4-3.1 2.2-.2.3-.9 1-1.3 1l.6-.8.6-2.2c0-.4-.5-2 0-2h9.5c5.6 0 8.5-.1 9.1-.1.7 0 .9.2.9 1l.2 2.7c0 .3.1.7-.3.7-1.1 0 .5-2.5-2.6-2.5h-4.4c-1.4 0-1.2-.1-1.2 1.6v17c0 2.8 2.5 1.7 2.5 2.7 0 .1 0 .4-.3.4-.7 0-1.6-.1-2.5-.1-3.5 0-4.1.1-4.3.1-.3 0-.4-.1-.4-.4 0-.8 2.5-.5 2.5-2.5v-17.3z" fill="none"/><path clip-path="url(#b)" fill="#D2232A" d="M415.1 72.3c6.9 0 11.8-4.8 11.8-12.4 0-6.9-4.9-11.8-11.2-11.8-6.4 0-11.4 5-11.4 12-.1 7 4.1 12.2 10.8 12.2m-.4-23.1c6.1 0 9.9 5.9 9.9 12 0 6.2-3.6 10.1-8.2 10.1-6.2 0-9.9-6-9.9-12.2 0-5.3 3-9.9 8.2-9.9"/><path clip-path="url(#b)" stroke="#D2232A" stroke-width=".205" d="M415.1 72.3c6.9 0 11.8-4.8 11.8-12.4 0-6.9-4.9-11.8-11.2-11.8-6.4 0-11.4 5-11.4 12-.1 7 4.1 12.2 10.8 12.2zm-.4-23.1c6.1 0 9.9 5.9 9.9 12 0 6.2-3.6 10.1-8.2 10.1-6.2 0-9.9-6-9.9-12.2 0-5.3 3-9.9 8.2-9.9z" fill="none"/><path clip-path="url(#b)" fill="#D2232A" d="M429.8 54.9c0-7-3.8-5-3.8-6.3 0-.2.3-.3.5-.3l1.5.1c.5 0 1-.1 1.4-.1.3 0 .6.5.8.8l14.8 17.8c.2.2.3.4.4.4.1 0 .1-.1.1-.4v-14c0-4.4-3.5-3.1-3.5-4.2 0-.2.2-.3.3-.3.9 0 1.8.1 2.8.1 1 0 2.4-.1 3.1-.1.2 0 .3.1.3.3 0 .9-1.8.3-1.8 2.7v19.4c0 1 0 1.4-.3 1.4-.2 0-.5-.2-1.2-.9l-13.3-16.3c-.1-.1-.4-.6-.7-.6-.1 0-.2.1-.2.8v13.7c0 3 2.7 1.8 2.7 2.7 0 .2 0 .4-.3.4-.7 0-1.6-.1-3.1-.1-1.1 0-2.7.1-2.9.1-.4 0-.4-.2-.4-.4 0-1.2 2.7.3 2.7-4.4v-12.3z"/><path clip-path="url(#b)" stroke="#D2232A" stroke-width=".205" d="M429.8 54.9c0-7-3.8-5-3.8-6.3 0-.2.3-.3.5-.3l1.5.1c.5 0 1-.1 1.4-.1.3 0 .6.5.8.8l14.8 17.8c.2.2.3.4.4.4.1 0 .1-.1.1-.4v-14c0-4.4-3.5-3.1-3.5-4.2 0-.2.2-.3.3-.3.9 0 1.8.1 2.8.1 1 0 2.4-.1 3.1-.1.2 0 .3.1.3.3 0 .9-1.8.3-1.8 2.7v19.4c0 1 0 1.4-.3 1.4-.2 0-.5-.2-1.2-.9l-13.3-16.3c-.1-.1-.4-.6-.7-.6-.1 0-.2.1-.2.8v13.7c0 3 2.7 1.8 2.7 2.7 0 .2 0 .4-.3.4-.7 0-1.6-.1-3.1-.1-1.1 0-2.7.1-2.9.1-.4 0-.4-.2-.4-.4 0-1.2 2.7.3 2.7-4.4v-12.3z" fill="none"/><path clip-path="url(#b)" fill="#D2232A" d="M366.1 61.8h-6.2c-.4 0-.6-.1-.4-.6l3.5-8.7c.2-.4.3-.4.5 0l3.2 8.6c.2.5.1.7-.6.7m6.7 8.3c-.7-1.2-1.1-2.6-1.4-3.2l-6.5-17.2c-.3-.9-.5-1.8-.8-1.8-.4 0-.5.5-2.3 4.7l-7.4 17c-.8 1.9-2.3 1.3-2.3 2 0 .2.1.4.3.4.8 0 1.6-.1 2.5-.1l2.6.1c.4 0 .8.1.8-.5 0-.9-2.2.1-2.2-2.2 0-.4.1-.9.2-1.2l1.6-3.7c.3-.7.5-1.1 1.8-1.1h6.8c.9 0 1.2.5 1.5 1.3l.9 2.2c.3.9 1 2.4 1 3.2 0 1.3-1.9.9-1.9 1.7 0 .3.5.3.7.3l2.5-.1 3.8.1c.2 0 .4 0 .4-.3.1-.8-1.7-.1-2.6-1.6"/><path clip-path="url(#b)" stroke="#D2232A" stroke-width=".205" d="M366.1 61.8h-6.2c-.4 0-.6-.1-.4-.6l3.5-8.7c.2-.4.3-.4.5 0l3.2 8.6c.2.5.1.7-.6.7zm6.7 8.3c-.7-1.2-1.1-2.6-1.4-3.2l-6.5-17.2c-.3-.9-.5-1.8-.8-1.8-.4 0-.5.5-2.3 4.7l-7.4 17c-.8 1.9-2.3 1.3-2.3 2 0 .2.1.4.3.4.8 0 1.6-.1 2.5-.1l2.6.1c.4 0 .8.1.8-.5 0-.9-2.2.1-2.2-2.2 0-.4.1-.9.2-1.2l1.6-3.7c.3-.7.5-1.1 1.8-1.1h6.8c.9 0 1.2.5 1.5 1.3l.9 2.2c.3.9 1 2.4 1 3.2 0 1.3-1.9.9-1.9 1.7 0 .3.5.3.7.3l2.5-.1 3.8.1c.2 0 .4 0 .4-.3.1-.8-1.7-.1-2.6-1.6z" fill="none"/><path clip-path="url(#b)" fill="#D2232A" d="M93.8 63.2c0 5.4 3.2 7.8 7.4 7.8 5.8 0 7.1-4.2 7.1-8.1v-10.9c0-3.4-2.9-2-2.9-3.3 0-.2.2-.3.3-.3l3.6.1 1.7-.1c.2 0 .4.2.4.4 0 .9-1.8.2-1.8 3.3v10.4c0 1.6.4 10-8.6 10-8.1 0-9.7-4.9-9.7-10.1v-11.5c0-2-2.5-1.2-2.5-2.3 0-.2.5-.3.7-.3l2.4.1c1 0 2-.1 2.9-.1.2 0 1-.1 1 .3 0 .9-2.1 0-2.1 2.4v12.2z"/><path clip-path="url(#b)" stroke="#D2232A" stroke-width=".205" d="M93.8 63.2c0 5.4 3.2 7.8 7.4 7.8 5.8 0 7.1-4.2 7.1-8.1v-10.9c0-3.4-2.9-2-2.9-3.3 0-.2.2-.3.3-.3l3.6.1 1.7-.1c.2 0 .4.2.4.4 0 .9-1.8.2-1.8 3.3v10.4c0 1.6.4 10-8.6 10-8.1 0-9.7-4.9-9.7-10.1v-11.5c0-2-2.5-1.2-2.5-2.3 0-.2.5-.3.7-.3l2.4.1c1 0 2-.1 2.9-.1.2 0 1-.1 1 .3 0 .9-2.1 0-2.1 2.4v12.2z" fill="none"/><path clip-path="url(#b)" fill="#D2232A" d="M117.2 55c0-7-3.7-5-3.7-6.3 0-.2.3-.3.5-.3l1.5.1c.5 0 1-.1 1.4-.1.3 0 .6.5.8.8l14.6 17.8c.2.2.3.4.4.4s.1-.1.1-.4v-14.1c0-4.4-3.4-3.1-3.4-4.2 0-.2.2-.3.3-.3.9 0 1.8.1 2.8.1 1.1 0 2.4-.1 3.1-.1.2 0 .3.1.3.3 0 .9-1.8.3-1.8 2.7v19.5c0 1 0 1.4-.3 1.4-.2 0-.5-.2-1.2-.9l-13.3-16.3c-.1-.1-.4-.6-.7-.6-.1 0-.2.1-.2.8v13.7c0 3 2.7 1.8 2.7 2.8 0 .2 0 .4-.3.4-.7 0-1.6-.1-3.1-.1-1.1 0-2.7.1-2.9.1-.4 0-.4-.2-.4-.4 0-1.2 2.7.3 2.7-4.4v-12.4z"/><path clip-path="url(#b)" stroke="#D2232A" stroke-width=".205" d="M117.2 55c0-7-3.7-5-3.7-6.3 0-.2.3-.3.5-.3l1.5.1c.5 0 1-.1 1.4-.1.3 0 .6.5.8.8l14.6 17.8c.2.2.3.4.4.4s.1-.1.1-.4v-14.1c0-4.4-3.4-3.1-3.4-4.2 0-.2.2-.3.3-.3.9 0 1.8.1 2.8.1 1.1 0 2.4-.1 3.1-.1.2 0 .3.1.3.3 0 .9-1.8.3-1.8 2.7v19.5c0 1 0 1.4-.3 1.4-.2 0-.5-.2-1.2-.9l-13.3-16.3c-.1-.1-.4-.6-.7-.6-.1 0-.2.1-.2.8v13.7c0 3 2.7 1.8 2.7 2.8 0 .2 0 .4-.3.4-.7 0-1.6-.1-3.1-.1-1.1 0-2.7.1-2.9.1-.4 0-.4-.2-.4-.4 0-1.2 2.7.3 2.7-4.4v-12.4z" fill="none"/><path clip-path="url(#b)" fill="#D2232A" d="M142.6 51.2c0-2.5-2.5-1.8-2.5-2.5 0-.3.1-.4.3-.4 1.2 0 2.3.1 3.4.1l2.9-.1c.5 0 .6.1.6.3 0 .8-2.2 0-2.2 2.6v18.1c0 2.3 2.8 1.5 2.8 2.5 0 .2-.1.3-.6.3-.7 0-2.1-.1-3.4-.1-1.9 0-2.6.1-3 .1-.6 0-.7-.2-.7-.5 0-1 2.4.1 2.4-3.2v-17.2z"/><path clip-path="url(#b)" stroke="#D2232A" stroke-width=".205" d="M142.6 51.2c0-2.5-2.5-1.8-2.5-2.5 0-.3.1-.4.3-.4 1.2 0 2.3.1 3.4.1l2.9-.1c.5 0 .6.1.6.3 0 .8-2.2 0-2.2 2.6v18.1c0 2.3 2.8 1.5 2.8 2.5 0 .2-.1.3-.6.3-.7 0-2.1-.1-3.4-.1-1.9 0-2.6.1-3 .1-.6 0-.7-.2-.7-.5 0-1 2.4.1 2.4-3.2v-17.2z" fill="none"/><path clip-path="url(#b)" fill="#D2232A" d="M151.9 50.9c-.8-2-2.4-1.4-2.4-2.1 0-.3.2-.5.4-.5 1 0 1.9.1 2.8.1.8 0 2-.1 2.4-.1.2 0 .4.1.4.3 0 .5-1.3.5-1.3 1.7 0 .5.2 1 .3 1.3l5.4 13.9c.7 1.8.9 2.6 1.2 2.6.3 0 .4-.5.6-.9l5.4-14.4c.2-.5.6-1.6.4-2.3 0-1.5-2-.9-2-1.7 0-.3.2-.4.5-.4.7 0 1.4.1 2 .1 1.5 0 1.9-.1 2.4-.1.3 0 .5.1.5.4 0 .7-.9-.1-1.7 2.2l-7.7 19.8c-.3.8-.6 2-1 2-.5 0-.9-1.4-1.1-2.1l-7.5-19.8z"/><path clip-path="url(#b)" stroke="#D2232A" stroke-width=".205" d="M151.9 50.9c-.8-2-2.4-1.4-2.4-2.1 0-.3.2-.5.4-.5 1 0 1.9.1 2.8.1.8 0 2-.1 2.4-.1.2 0 .4.1.4.3 0 .5-1.3.5-1.3 1.7 0 .5.2 1 .3 1.3l5.4 13.9c.7 1.8.9 2.6 1.2 2.6.3 0 .4-.5.6-.9l5.4-14.4c.2-.5.6-1.6.4-2.3 0-1.5-2-.9-2-1.7 0-.3.2-.4.5-.4.7 0 1.4.1 2 .1 1.5 0 1.9-.1 2.4-.1.3 0 .5.1.5.4 0 .7-.9-.1-1.7 2.2l-7.7 19.8c-.3.8-.6 2-1 2-.5 0-.9-1.4-1.1-2.1l-7.5-19.8z" fill="none"/><path clip-path="url(#b)" fill="#D2232A" d="M177.6 58.1c0 1.1-.1 1.1 1.2 1.1h3.3c3.2 0 2.4-2.7 3.1-2.7.2 0 .3.4.3.6 0 1.2-.1 2.3-.1 3.4 0 .9.1 1.7.1 2.7 0 .3-.1.4-.3.4-1 0 .1-3-2.5-3h-4.6c-.7 0-.6.6-.6 1.1v6.3c0 2-.2 2.8 2.4 2.8 7.2 0 8.2-3.5 8.6-3.5.2 0 .2.3.2.4 0 1.2-.8 2.4-1.5 3.3-1 1.2-1.7 1.1-3 1.1-2.4 0-4.7-.2-7.1-.1-1.2 0-2.5.1-3.8.1-.3 0-.5-.1-.5-.3.1-.4.4-.3 1.4-.9.8-.4.9-1.3.9-2.9v-15.3c0-1.5 0-3.1-1.7-3.4-.2-.1-.9-.1-.9-.5 0-.3.2-.4 1.1-.4 5.9 0 7.5.1 8.8.1.6 0 3.5-.1 4.4-.1.2 0 .3.3.3.7 0 3.7-.4 4-.6 4-.7 0-.2-1.6-.7-2.4-.8-1.1-4-.9-5.3-.9-3 0-2.9-.1-2.9 2.1v6.2z"/><path clip-path="url(#b)" stroke="#D2232A" stroke-width=".205" d="M177.6 58.1c0 1.1-.1 1.1 1.2 1.1h3.3c3.2 0 2.4-2.7 3.1-2.7.2 0 .3.4.3.6 0 1.2-.1 2.3-.1 3.4 0 .9.1 1.7.1 2.7 0 .3-.1.4-.3.4-1 0 .1-3-2.5-3h-4.6c-.7 0-.6.6-.6 1.1v6.3c0 2-.2 2.8 2.4 2.8 7.2 0 8.2-3.5 8.6-3.5.2 0 .2.3.2.4 0 1.2-.8 2.4-1.5 3.3-1 1.2-1.7 1.1-3 1.1-2.4 0-4.7-.2-7.1-.1-1.2 0-2.5.1-3.8.1-.3 0-.5-.1-.5-.3.1-.4.4-.3 1.4-.9.8-.4.9-1.3.9-2.9v-15.3c0-1.5 0-3.1-1.7-3.4-.2-.1-.9-.1-.9-.5 0-.3.2-.4 1.1-.4 5.9 0 7.5.1 8.8.1.6 0 3.5-.1 4.4-.1.2 0 .3.3.3.7 0 3.7-.4 4-.6 4-.7 0-.2-1.6-.7-2.4-.8-1.1-4-.9-5.3-.9-3 0-2.9-.1-2.9 2.1v6.2z" fill="none"/><path clip-path="url(#b)" fill="#D2232A" d="M197.4 59.2c0 .6 1.9.5 3.4.5 1.3 0 4.3-.6 4.3-4.8 0-4.1-2.9-5.5-5.9-5.5-1.1 0-1.8-.1-1.8 1.2v8.6zm11.3 9.3c2.2 3.7 3.7 2.5 3.7 3.3 0 .4-1.7.4-2 .4-2.3 0-3.5-1.7-4.6-3.6l-3.4-5.9c-1.1-1.9-.7-1.8-4.1-1.8-1 0-.8.6-.8.9v7.1c0 2.9 3.2 1.8 3.2 3 0 .3-.3.3-.5.3-.3 0-1-.1-3.6-.1-1.2 0-2.4.1-3.5.1-.2 0-.3-.2-.3-.4 0-.8 2.3-.4 2.3-2.9v-17.1c0-3.2-2.7-1.8-2.7-3 0-.2.2-.4.6-.4.6 0 .4.1 2 .1 1.8 0 3.6-.1 5.2-.1.5 0 7.3-.7 7.3 5.8 0 2.6-1.7 4.9-3.9 5.8l5.1 8.5z"/><path clip-path="url(#b)" stroke="#D2232A" stroke-width=".205" d="M197.4 59.2c0 .6 1.9.5 3.4.5 1.3 0 4.3-.6 4.3-4.8 0-4.1-2.9-5.5-5.9-5.5-1.1 0-1.8-.1-1.8 1.2v8.6zm11.3 9.3c2.2 3.7 3.7 2.5 3.7 3.3 0 .4-1.7.4-2 .4-2.3 0-3.5-1.7-4.6-3.6l-3.4-5.9c-1.1-1.9-.7-1.8-4.1-1.8-1 0-.8.6-.8.9v7.1c0 2.9 3.2 1.8 3.2 3 0 .3-.3.3-.5.3-.3 0-1-.1-3.6-.1-1.2 0-2.4.1-3.5.1-.2 0-.3-.2-.3-.4 0-.8 2.3-.4 2.3-2.9v-17.1c0-3.2-2.7-1.8-2.7-3 0-.2.2-.4.6-.4.6 0 .4.1 2 .1 1.8 0 3.6-.1 5.2-.1.5 0 7.3-.7 7.3 5.8 0 2.6-1.7 4.9-3.9 5.8l5.1 8.5z" fill="none"/><path clip-path="url(#b)" fill="#D2232A" d="M213.6 66.2c-.1-.7 0-1 .3-1 .4 0 .4.4.6 1.1.4 1.5 2.2 5 6.5 5 2.9 0 5.8-1.8 5.8-5.3 0-6.5-12.6-2.9-12.6-11.6 0-4.3 3.3-6.3 6.9-6.3 3.7 0 4.8 1.2 5.2 1.2.3 0 .3-.4.7-.4.2 0 .3.1.4.5l.5 4.6c0 .3 0 .5-.3.5s-.6-.7-.7-1c-.9-2.9-3.2-4.4-5.9-4.4-2.4 0-5.1 1.3-5.1 4.4 0 6.3 12.6 2.6 12.6 11.9 0 2.8-1.8 7.1-8.9 7.1-2.3 0-5.1-1.2-5.2-1.8l-.8-4.5z"/><path clip-path="url(#b)" stroke="#D2232A" stroke-width=".205" d="M213.6 66.2c-.1-.7 0-1 .3-1 .4 0 .4.4.6 1.1.4 1.5 2.2 5 6.5 5 2.9 0 5.8-1.8 5.8-5.3 0-6.5-12.6-2.9-12.6-11.6 0-4.3 3.3-6.3 6.9-6.3 3.7 0 4.8 1.2 5.2 1.2.3 0 .3-.4.7-.4.2 0 .3.1.4.5l.5 4.6c0 .3 0 .5-.3.5s-.6-.7-.7-1c-.9-2.9-3.2-4.4-5.9-4.4-2.4 0-5.1 1.3-5.1 4.4 0 6.3 12.6 2.6 12.6 11.9 0 2.8-1.8 7.1-8.9 7.1-2.3 0-5.1-1.2-5.2-1.8l-.8-4.5z" fill="none"/><path clip-path="url(#b)" fill="#D2232A" d="M235.4 51.2c0-2.5-2.5-1.8-2.5-2.5 0-.3.1-.4.3-.4 1.2 0 2.3.1 3.4.1l2.9-.1c.5 0 .6.1.6.3 0 .8-2.2 0-2.2 2.6v18.1c0 2.3 2.8 1.5 2.8 2.5 0 .2-.1.3-.6.3-.7 0-2.1-.1-3.4-.1-1.9 0-2.6.1-3 .1-.6 0-.7-.2-.7-.5 0-1 2.4.1 2.4-3.2v-17.2z"/><path clip-path="url(#b)" stroke="#D2232A" stroke-width=".205" d="M235.4 51.2c0-2.5-2.5-1.8-2.5-2.5 0-.3.1-.4.3-.4 1.2 0 2.3.1 3.4.1l2.9-.1c.5 0 .6.1.6.3 0 .8-2.2 0-2.2 2.6v18.1c0 2.3 2.8 1.5 2.8 2.5 0 .2-.1.3-.6.3-.7 0-2.1-.1-3.4-.1-1.9 0-2.6.1-3 .1-.6 0-.7-.2-.7-.5 0-1 2.4.1 2.4-3.2v-17.2z" fill="none"/><path clip-path="url(#b)" fill="#D2232A" d="M252.1 51.8c0-.2.1-1.5-.3-1.5h-5c-1.9 0-2 .5-2.5 2.4-.1.3-.1.8-.5.8-.2 0-.3-.2-.3-.4l.3-3.3c0-.4 0-1.3.6-1.3 2.4 0 4.8.1 8.8.1 5.6 0 8.5-.1 9.1-.1.7 0 .9.2.9 1l.2 2.7c0 .3.1.7-.3.7-1.1 0 .5-2.6-2.6-2.6h-4.4c-1.4 0-1.2-.1-1.2 1.6v17.1c0 2.8 2.5 1.7 2.5 2.8 0 .1 0 .4-.3.4-.7 0-1.6-.1-2.5-.1-3.5 0-4.1.1-4.2.1-.3 0-.4-.1-.4-.4 0-.8 2.4-.5 2.4-2.5v-17.5z"/><path clip-path="url(#b)" stroke="#D2232A" stroke-width=".205" d="M252.1 51.8c0-.2.1-1.5-.3-1.5h-5c-1.9 0-2 .5-2.5 2.4-.1.3-.1.8-.5.8-.2 0-.3-.2-.3-.4l.3-3.3c0-.4 0-1.3.6-1.3 2.4 0 4.8.1 8.8.1 5.6 0 8.5-.1 9.1-.1.7 0 .9.2.9 1l.2 2.7c0 .3.1.7-.3.7-1.1 0 .5-2.6-2.6-2.6h-4.4c-1.4 0-1.2-.1-1.2 1.6v17.1c0 2.8 2.5 1.7 2.5 2.8 0 .1 0 .4-.3.4-.7 0-1.6-.1-2.5-.1-3.5 0-4.1.1-4.2.1-.3 0-.4-.1-.4-.4 0-.8 2.4-.5 2.4-2.5v-17.5z" fill="none"/><path clip-path="url(#b)" fill="#D2232A" d="M267.1 50.5c-.8-1.4-2.3-1-2.3-1.6 0-.2.2-.5.4-.5.8 0 1.4.1 3.5.1 1 0 1.9-.1 2.2-.1.2 0 .6 0 .6.3 0 .6-1.5.6-1.5 1.6 0 .5.4 1.1.6 1.4l3.7 6.5c.2.4.4.6.6.6.2 0 .3-.2.6-.7l3.2-5.6c.2-.4.6-.9.6-1.9 0-1.6-2.3-.9-2.3-1.7 0-.4.3-.5.6-.5.7 0 1.5.1 2.3.1l2.7-.1c.2 0 .3.2.3.4 0 .4-.5.5-.7.6-.8.5-1.2 1.5-1.7 2.3l-4.3 7.3c-.5.8-.7 1-.7 1.5v8.2c0 2.9 2.5 2 2.5 3 0 .3-.3.3-.7.3-.5 0-2.3-.1-3.4-.1-1.4 0-2.5.1-2.8.1-.3 0-.5 0-.5-.4 0-.9 2.4-.1 2.4-2.5v-8.1c0-.6-.5-1.3-.7-1.7l-5.2-8.8z"/><path clip-path="url(#b)" stroke="#D2232A" stroke-width=".205" d="M267.1 50.5c-.8-1.4-2.3-1-2.3-1.6 0-.2.2-.5.4-.5.8 0 1.4.1 3.5.1 1 0 1.9-.1 2.2-.1.2 0 .6 0 .6.3 0 .6-1.5.6-1.5 1.6 0 .5.4 1.1.6 1.4l3.7 6.5c.2.4.4.6.6.6.2 0 .3-.2.6-.7l3.2-5.6c.2-.4.6-.9.6-1.9 0-1.6-2.3-.9-2.3-1.7 0-.4.3-.5.6-.5.7 0 1.5.1 2.3.1l2.7-.1c.2 0 .3.2.3.4 0 .4-.5.5-.7.6-.8.5-1.2 1.5-1.7 2.3l-4.3 7.3c-.5.8-.7 1-.7 1.5v8.2c0 2.9 2.5 2 2.5 3 0 .3-.3.3-.7.3-.5 0-2.3-.1-3.4-.1-1.4 0-2.5.1-2.8.1-.3 0-.5 0-.5-.4 0-.9 2.4-.1 2.4-2.5v-8.1c0-.6-.5-1.3-.7-1.7l-5.2-8.8z" fill="none"/><path clip-path="url(#b)" fill="#D2232A" d="M299.6 71.6c4 0 5-5.8 5-9 0-2.4-.5-4.5-3-4.5-3.8 0-4.8 5.5-4.8 8.7 0 2.1.4 4.8 2.8 4.8m-4.9-5.1c0-4.2 2.6-9.2 6.9-9.2 3.4 0 5.1 2.6 5.1 6.1 0 4.4-2.6 9-7 9-3.3 0-5-2.5-5-5.9"/><path clip-path="url(#b)" stroke="#D2232A" stroke-width=".205" d="M299.6 71.6c4 0 5-5.8 5-9 0-2.4-.5-4.5-3-4.5-3.8 0-4.8 5.5-4.8 8.7 0 2.1.4 4.8 2.8 4.8zm-4.9-5.1c0-4.2 2.6-9.2 6.9-9.2 3.4 0 5.1 2.6 5.1 6.1 0 4.4-2.6 9-7 9-3.3 0-5-2.5-5-5.9z" fill="none"/><path clip-path="url(#b)" fill="#D2232A" d="M313.5 58.1c.4 0 .3-1.7 1.5-5.3 1.1-3.3 3.2-5.4 5.1-5.4 1.3 0 1.4.4 1.4 1 0 .8 0 2-.5 2s-.6-1.5-2-1.5c-2.4 0-3.1 8-3.1 8.7 0 .2-.1.6 0 .6h2c.4 0 .9-.1.9.6s-.4.6-.9.6h-1.6c-.8 0-.7.4-.8 1.3l-1.3 12.3c-.6 5.7-4.2 6.1-4.5 6.1-.6 0-.9-.3-.9-.9 0-.9.3-2.3.8-2.3.6 0 .3 1.7 1.1 1.7.2 0 1.1.1 1.4-2.2l1.6-15.6c0-.2 0-.3-.2-.3h-1.8c-.4 0-.9.1-.9-.6s.4-.6.9-.6h1.8z"/><path clip-path="url(#b)" stroke="#D2232A" stroke-width=".205" d="M313.5 58.1c.4 0 .3-1.7 1.5-5.3 1.1-3.3 3.2-5.4 5.1-5.4 1.3 0 1.4.4 1.4 1 0 .8 0 2-.5 2s-.6-1.5-2-1.5c-2.4 0-3.1 8-3.1 8.7 0 .2-.1.6 0 .6h2c.4 0 .9-.1.9.6s-.4.6-.9.6h-1.6c-.8 0-.7.4-.8 1.3l-1.3 12.3c-.6 5.7-4.2 6.1-4.5 6.1-.6 0-.9-.3-.9-.9 0-.9.3-2.3.8-2.3.6 0 .3 1.7 1.1 1.7.2 0 1.1.1 1.4-2.2l1.6-15.6c0-.2 0-.3-.2-.3h-1.8c-.4 0-.9.1-.9-.6s.4-.6.9-.6h1.8z" fill="none"/><defs><path id="c" d="M2 2h72.1v131h-72.1z"/></defs><clipPath id="d"><use xlink:href="#c" overflow="visible"/></clipPath><path clip-path="url(#d)" fill="#D7D6D6" d="M4 133v-4l-1.7-3.3h2.3l-.3-8.5h-2l-.3-.8s1.1-1.2 1.9-2.3c.7-1 .9-3.2 1.3-3.7 1.6-2.3 4.2-2.1 5.1-.9v-17.3l-1.8-2.7.3-2.5h-1.2l.3-1.7-1.6-.9-1-1.7s1.8-1.3 2-2.8c.1-1.5-.3-28.6 26.1-37.8 0 0-.3-.6-.3-1.2 0-.7 1-1 2.1-1 0 0-.8-.5-.8-1.1 0-.3.6-.7 1.2-.7 0 0-.1-.4-.5-.5-.4-.1-2.9-1.8-2.9-4.8s3.3-4.9 4.6-4.9l-.1-14.9h-4s-.3 1.2-1.7 1.2c-.6 0-.9-.8-.9-.8s-1.4-.2-1.5-1.4c0-1 1.1-.9 1.1-.9s.5-1.8 1.8-1.7c1.3.1 1.2 1.4 1.2 1.4h4.1v-3.5s-1.8-.3-1.8-1.8c0-1.1 1.5-1.3 1.5-1.3s-.4-2.2 1.3-2.2c1.5 0 1.2 2.2 1.2 2.2s1.2.1 1.2 1.4c0 1.4-1.2 1.4-1.2 1.4v3.5s2.3.1 3.6 0c0 0 .6-1.5 1.7-1.5s1.7 1.4 1.7 1.4.9.2 1.1 1.3c.2 1.1-1.4 1.2-1.4 1.2s-.3 1-1.2 1.1c-1 .1-1.6-1-1.6-1l-3.9-.2-.1 15s4.4.8 4.4 5.2c0 4.3-3.5 4.7-3.5 4.7s-.3.2.3.4c.5.3.9 1.2-.4 1.6 0 0 2.2.3 2.5 1.2 0 0 0 .5-.4.7 0 0 27.1 6.7 27.7 38.6l1.6 2.4-.8 1.4-1.2.9.1 1.7h-1.3v3l-1.9 3-.1 16.5s1.8-1.9 4 0c2.9 2.5 1.2 5.7 3.5 7.6l-.2.5h-1.3l.2 8.4h2l-1.7 2.9v4.3h-68.4z"/></svg>